<svg width="100%" height="100%" viewBox="0 0 1440 1000" preserveAspectRatio="xMidYMid slice" xmlns="http://www.w3.org/2000/svg">
  <path d="M-400,-100 C-388.65071568875425,0 -387.9753471720953,40 -385.21689446244346,140 C-388.38713747975726,240 -357.35092474686496,280 -339.7897559880307,380 C-311.2844373125055,480 -293.31566768036055,520 -319.60230762360305,620 C-342.5650382907779,720 -342.00728448373866,760 -320.30802946075346,860 C-317.0243083795172,960 -263.0591934046858,1000 -279.94942522385395,1100 C-264.67895694144,1200 -316.406328115432,1240 -310.969716312721,1340 " fill="none" stroke="#ffffff" stroke-width="1.22" opacity="0.042" />
<path d="M-356.1289056391009,-100 C-334.79939942629346,0 -403.7044075433819,40 -390.4280856524268,140 C-365.14911067976146,240 -423.14018229383976,280 -397.91110658085813,380 C-398.5637085355082,480 -374.65137343042977,520 -362.5959810238819,620 C-353.1159078408181,720 -345.88908272887204,760 -340.40398987311534,860 C-320.63404818531296,960 -317.8683655733399,1000 -331.8743746099601,1100 C-335.61191407256354,1200 -304.0244596856197,1240 -290.71468680370515,1340 " fill="none" stroke="#ffffff" stroke-width="1.18" opacity="0.039" />
<path d="M-311.496603749031,-100 C-292.80268843124907,0 -279.3535278445313,40 -255.2048146191674,140 C-231.45421896514202,240 -324.22612511012875,280 -309.4209726708954,380 C-301.76170907220336,480 -346.25064560410954,520 -334.61170844155646,620 C-307.2209162263035,720 -283.469201981252,760 -279.6405269289173,860 C-262.7430826527661,960 -326.1219266407669,1000 -305.719239990383,1100 C-303.26382409065405,1200 -267.6212539908516,1240 -288.5199821347274,1340 " fill="none" stroke="#ffffff" stroke-width="1.13" opacity="0.042" />
<path d="M-272.3374918341349,-100 C-291.3995205298301,0 -214.20063724030652,40 -212.66303279939808,140 C-205.26284437291253,240 -188.26484081342684,280 -189.10828955373515,380 C-177.7097466626222,480 -123.15601288775238,520 -130.0126176634159,620 C-103.65040675156295,720 -176.5680442865268,760 -149.8115191844998,860 C-132.58415757056795,960 -143.53559293183773,1000 -151.12885570955558,1100 C-154.79102876809293,1200 -128.37667637189554,1240 -117.10157064889482,1340 " fill="none" stroke="#ffffff" stroke-width="1.19" opacity="0.053" />
<path d="M-234.57510259891075,-100 C-211.79835083179114,0 -211.35346067882665,40 -226.83772244527495,140 C-232.43734087773683,240 -244.3960583402664,280 -262.6297051219332,380 C-235.98590220273098,480 -248.49433826747884,520 -248.03987239237205,620 C-256.520789729699,720 -220.31032583156912,760 -193.12125687969615,860 C-172.31786887044194,960 -194.65581566719976,1000 -177.79803367148824,1100 C-196.2158252714101,1200 -243.87044563194786,1240 -229.97564017346824,1340 " fill="none" stroke="#ffffff" stroke-width="2.04" opacity="0.033" />
<path d="M-200.3855313758395,-100 C-223.7902584575341,0 -245.7956818403267,40 -228.72222990410307,140 C-234.00166314951693,240 -196.45142660262096,280 -181.04238398794462,380 C-173.30624186245672,480 -167.04937658685395,520 -173.2456561441911,620 C-167.73735390432222,720 -151.73032232449532,760 -178.12722922321814,860 C-161.05659679842117,960 -164.75141851830261,1000 -194.39237030637926,1100 C-197.92448746995274,1200 -166.2114064908281,1240 -169.60131307051915,1340 " fill="none" stroke="#ffffff" stroke-width="1.03" opacity="0.038" />
<path d="M-158.80748185189026,-100 C-137.23069441917457,0 -114.08991248252372,40 -131.67540724166528,140 C-143.44198786985044,240 -160.86901523088486,280 -155.16966728918987,380 C-143.99906268415714,480 -148.33109936599539,520 -162.59666324492792,620 C-191.18185094112292,720 -161.4651767432503,760 -146.60273395851505,860 C-175.91043480905878,960 -178.35432701462912,1000 -185.1184626358175,1100 C-198.87345677138958,1200 -181.68057782478607,1240 -159.7980067472344,1340 " fill="none" stroke="#ffffff" stroke-width="1.63" opacity="0.021" />
<path d="M-134.594637613248,-100 C-146.17406532592082,0 -135.83909264887959,40 -114.49668937107349,140 C-106.55442206116177,240 -39.424936757074015,280 -58.92980705402297,380 C-65.76768713448294,480 -37.104157544209265,520 -42.56118217734834,620 C-52.64868575736378,720 -121.493376773916,760 -100.58574676712749,860 C-87.3139190172196,960 -76.91167331746676,1000 -85.72001560613428,1100 C-82.81310292073695,1200 -38.728994232658835,1240 -33.07278840482361,1340 " fill="none" stroke="#ffffff" stroke-width="2.18" opacity="0.036" />
<path d="M-96.51323597045325,-100 C-113.66186951264245,0 -69.71403917697171,40 -73.93965621823178,140 C-75.02027805537242,240 -28.998647102255255,280 -19.302968263718867,380 C4.1334205354777325,480 -71.57348540214782,520 -70.9576613720796,620 C-42.12568689617248,720 -51.955236961169746,760 -46.45258256637281,860 C-73.14556051472765,960 -72.81970028503542,1000 -65.57991189233171,1100 C-45.18760411266422,1200 13.624197041570312,1240 -11.625330491799474,1340 " fill="none" stroke="#ffffff" stroke-width="0.95" opacity="0.051" />
<path d="M-75.77707815330265,-100 C-101.58119622384396,0 -52.272311711092556,40 -23.843878590841356,140 C-45.06032649898006,240 -72.76307468576708,280 -74.95859326583039,380 C-80.41256815876162,480 -45.13683341118086,520 -24.8474290338591,620 C-5.965415159431984,720 -90.63843500414748,760 -72.94751410348096,860 C-78.06547831663018,960 -23.546938381213053,1000 -26.536414273585038,1100 C-28.312699306068296,1200 -26.673367665549094,1240 -4.5534113994087875,1340 " fill="none" stroke="#ffffff" stroke-width="0.84" opacity="0.055" />
<path d="M-43.09670214694215,-100 C-24.47002601147667,0 -66.46983827781966,40 -67.78820484839572,140 C-76.16917510918542,240 -22.62792169292925,280 -41.68375953545602,380 C-46.90960349494877,480 -27.756692898168122,520 -15.508157160306666,620 C-7.807713587284013,720 37.70193011862758,760 30.21623616574331,860 C41.23651849851473,960 -25.1883375492864,1000 -20.123560320018797,1100 C-31.706056740852652,1200 -41.54812809781764,1240 -17.555287961685167,1340 " fill="none" stroke="#ffffff" stroke-width="1.03" opacity="0.014" />
<path d="M-11.977624699015117,-100 C12.450003364007294,0 6.597395809759028,40 -5.395324549142607,140 C14.798406259295255,240 -35.426603318750566,280 -24.437176804546816,380 C-28.561367617168077,480 -23.47367350806254,520 -34.575269883899374,620 C-33.284756516040375,720 46.94222555062617,760 18.995928593639967,860 C40.30380211379938,960 37.10209015789639,1000 25.83803615120349,1100 C-1.7823465712565643,1200 -19.161671098929762,1240 -18.243099218130574,1340 " fill="none" stroke="#ffffff" stroke-width="1.63" opacity="0.014" />
<path d="M13.703985773295177,-100 C-9.652325285243549,0 -24.81135110161751,40 -9.686341755190565,140 C-35.685243082758305,240 -4.092444804862723,280 9.787747985218193,380 C-6.963955921582627,480 -14.29955709248389,520 5.716485647345113,620 C15.976693795004795,720 7.454645731435377,760 13.649365737118263,860 C20.98792893689888,960 28.98526603089132,1000 16.003162136588006,1100 C-7.157466020355649,1200 33.77371121010517,1240 56.81359452258934,1340 " fill="none" stroke="#ffffff" stroke-width="1.14" opacity="0.022" />
<path d="M57.12886377187053,-100 C50.686729579018504,0 82.01025045287967,40 91.82966765886421,140 C115.81612751066052,240 95.30520515813146,280 102.21205735048957,380 C121.89620985760313,480 106.33818883746953,520 78.73736099178777,620 C68.20293377897266,720 111.38014636157901,760 133.76937811201105,860 C107.9423440532145,960 192.1398454064261,1000 177.36608471414155,1100 C177.07676760977145,1200 139.31300805060351,1240 151.45219626240663,1340 " fill="none" stroke="#ffffff" stroke-width="1.41" opacity="0.040" />
<path d="M76.11009117160916,-100 C105.67729135090605,0 141.0037922308404,40 127.12954995042367,140 C146.67160743763546,240 131.5874468150305,280 158.00886417319015,380 C157.22616554958284,480 206.56035816450338,520 187.5376019970102,620 C184.0290410089886,720 127.46429155831187,760 157.05432624104907,860 C181.55707263531662,960 197.84944507192074,1000 196.7808120762533,1100 C195.67400512372555,1200 219.78543983061303,1240 236.11539654675857,1340 " fill="none" stroke="#ffffff" stroke-width="1.13" opacity="0.010" />
<path d="M99.0547386905168,-100 C111.55222021110376,0 119.20771461600795,40 95.47836054181434,140 C103.27346436649023,240 149.4914487169919,280 127.91016686926591,380 C106.07716094607342,480 125.57960232049851,520 124.71568178613362,620 C111.71147696387283,720 165.39904409280456,760 143.9281952895504,860 C120.76866488150971,960 132.48374602871786,1000 107.15514739066198,1100 C93.19186995763374,1200 162.87823897884704,1240 164.57268857037127,1340 " fill="none" stroke="#ffffff" stroke-width="1.69" opacity="0.047" />
<path d="M124.8222504135132,-100 C154.2411976805031,0 88.96064911878321,40 105.59332353526648,140 C100.08535310297509,240 138.15923380652202,280 132.81961177547572,380 C148.36019298435443,480 198.6062789896505,520 185.13955425534817,620 C175.54552198993747,720 250.97831723025485,760 245.01134491653704,860 C260.9764461871772,960 264.49088490650956,1000 268.74083359730224,1100 C251.87697518811058,1200 333.8330941084546,1240 314.09400235010855,1340 " fill="none" stroke="#ffffff" stroke-width="1.34" opacity="0.011" />
<path d="M169.04784527980934,-100 C141.75395928180765,0 237.8417219533666,40 211.35093734829837,140 C215.5023697297272,240 170.97639182472352,280 173.92048583566176,380 C152.1466858153733,480 170.87456279067695,520 150.41145574239275,620 C143.8918349981057,720 119.49596207857982,760 123.79310906119026,860 C145.48129516396148,960 129.22483173677352,1000 124.70865833421442,1100 C104.92401968885517,1200 145.00948245174715,1240 147.50985249241046,1340 " fill="none" stroke="#ffffff" stroke-width="2.17" opacity="0.054" />
<path d="M187.33820795804309,-100 C187.38647033396032,0 114.19980114711983,40 133.69694562771107,140 C104.28111968314012,240 98.94847955121293,280 117.49211083809726,380 C137.3889129030387,480 76.18340550261732,520 104.62063813573796,620 C122.0807309839033,720 89.31679057024925,760 61.6976258042113,860 C35.46767658891933,960 98.20014901916576,1000 80.58577878464709,1100 C57.52350382265803,1200 64.01347600586894,1240 90.67672556558266,1340 " fill="none" stroke="#ffffff" stroke-width="1.17" opacity="0.055" />
<path d="M205.34130841364782,-100 C188.95721662635552,0 217.77778758963987,40 244.209220036344,140 C216.64204282478212,240 234.1499100385168,280 215.204762550107,380 C206.65264527177004,480 272.81900044390557,520 258.5767693128147,620 C232.96362627788992,720 295.5191628887052,760 273.9704500699146,860 C302.6003308449445,960 249.55090431658581,1000 252.92239923278845,1100 C257.141210767678,1200 256.793537515667,1240 250.09178819185732,1340 " fill="none" stroke="#ffffff" stroke-width="1.62" opacity="0.043" />
<path d="M227.17400742084024,-100 C202.30964539948735,0 191.89582080661035,40 176.8460908217451,140 C201.0085249317177,240 105.13264271791766,280 119.3409287924292,380 C142.58255355223,480 66.76633292461347,520 63.25447448551205,620 C72.58550792710115,720 -3.1301050402224178,760 25.109947004280016,860 C19.78845905489105,960 -6.595446150506518,1000 10.880102302525671,1100 C40.803474466574116,1200 -18.894398261005907,1240 1.6068715737021364,1340 " fill="none" stroke="#ffffff" stroke-width="1.98" opacity="0.058" />
<path d="M260.0981969770908,-100 C285.3062290847065,0 208.78506755822934,40 218.38504690525392,140 C204.51034951569295,240 256.11329501875883,280 236.65305184963648,380 C250.41494038143352,480 281.3914405584197,520 287.0746829820327,620 C260.6769361730776,720 244.77643350796342,760 237.9223915459677,860 C267.69982860518553,960 184.73464880319574,1000 185.48824526815454,1100 C160.7727146659222,1200 126.52080027166829,1240 150.45779034027248,1340 " fill="none" stroke="#ffffff" stroke-width="1.65" opacity="0.056" />
<path d="M282.6017991116133,-100 C296.1162545248484,0 244.1040247690844,40 242.11315981374364,140 C218.22220617171865,240 164.37467194064132,280 185.66608128014246,380 C172.95770959379632,480 225.89381149206721,520 208.5196831516837,620 C207.4240687443984,720 249.91818758232603,760 231.77429508033487,860 C218.8086774614961,960 273.9738697271524,1000 261.9369651553171,1100 C265.2470140572387,1200 227.05790025779078,1240 245.81987373835577,1340 " fill="none" stroke="#ffffff" stroke-width="1.19" opacity="0.059" />
<path d="M305.69433124927644,-100 C318.7704536453657,0 293.6275553481049,40 317.26397366107204,140 C292.86264182518994,240 344.104101149527,280 320.1496037990072,380 C319.229489754764,480 301.4797147406233,520 275.96698109131944,620 C297.45956341920044,720 311.42586184726156,760 333.3363193654613,860 C325.4756798067166,960 342.11412041993896,1000 342.5283199933006,1100 C335.22487747485707,1200 374.23602534685693,1240 359.71020074199396,1340 " fill="none" stroke="#ffffff" stroke-width="2.26" opacity="0.052" />
<path d="M336.281200957698,-100 C357.5156394405785,0 386.3833661350526,40 390.38383955486324,140 C374.99998540933035,240 335.44021703677544,280 343.65194301800267,380 C327.9174822114026,480 335.1038930748754,520 351.09440680105047,620 C346.4522128148332,720 360.97063391548176,760 341.049403920815,860 C368.5006071429668,960 339.5202389536804,1000 311.1269515506293,1100 C300.0459606522491,1200 323.98149605399453,1240 314.298202973001,1340 " fill="none" stroke="#ffffff" stroke-width="1.06" opacity="0.039" />
<path d="M360.8548557656269,-100 C386.1125518931583,0 372.7447639830104,40 349.3518427579546,140 C323.9644448801637,240 328.41775452912475,280 344.1524698156079,380 C367.9268064948663,480 406.92712741466346,520 400.36308563296654,620 C372.631229486672,720 437.9606880151274,760 450.61184068359785,860 C441.97068231556557,960 437.1353048449679,1000 442.2636500627311,1100 C471.7827228133102,1200 513.1078031403642,1240 491.3225525643031,1340 " fill="none" stroke="#ffffff" stroke-width="1.31" opacity="0.021" />
<path d="M391.25218007308,-100 C383.002749391932,0 353.2197064558222,40 346.5804103363613,140 C334.35770572634493,240 362.0718468767194,280 390.83192554841116,380 C396.32731407630996,480 389.6970653730549,520 399.5325661286869,620 C391.8941603657092,720 378.46312626557966,760 392.81024496261176,860 C394.7022472098986,960 421.00722062720985,1000 436.39211821623746,1100 C446.19981476835596,1200 471.4205097289843,1240 471.7043867887808,1340 " fill="none" stroke="#ffffff" stroke-width="1.40" opacity="0.055" />
<path d="M434.70525518044064,-100 C414.2518176129095,0 499.553796485543,40 487.5939450807068,140 C465.62637110184374,240 421.51030974162296,280 441.10577725654076,380 C411.5194013400337,480 514.5827413118843,520 498.87786946769813,620 C523.8807705399662,720 492.0675488782715,760 495.69777296008533,860 C466.9456373499544,960 470.27390141252073,1000 482.51828443171047,1100 C501.56106500302997,1200 446.27109211080614,1240 442.28771545333103,1340 " fill="none" stroke="#ffffff" stroke-width="2.06" opacity="0.050" />
<path d="M459.6669697420084,-100 C468.8057284865349,0 490.9681503988509,40 508.36111388171224,140 C519.120515540176,240 571.6419965484026,280 565.2115198004676,380 C588.7104198190134,480 514.6616484241936,520 523.6978203158399,620 C508.682885391044,720 526.3342323414695,760 533.3762770385014,860 C542.2113521294787,960 546.8914315191124,1000 564.5508644561586,1100 C545.6846188798434,1200 609.2910753404233,1240 585.1272303594748,1340 " fill="none" stroke="#ffffff" stroke-width="2.14" opacity="0.026" />
<path d="M489.9544031895983,-100 C466.42325966922294,0 425.89091248129824,40 455.35599998784335,140 C437.87435569577053,240 468.37683423382276,280 491.0586887181298,380 C482.906572402153,480 505.57675326906553,520 523.8208767190563,620 C508.1630962508512,720 572.3926413375185,760 545.9017618918388,860 C570.7313469682999,960 569.8312945447624,1000 546.5245536917132,1100 C563.6573111590736,1200 483.4347593082355,1240 509.70231907330896,1340 " fill="none" stroke="#ffffff" stroke-width="1.38" opacity="0.034" />
<path d="M528.0374970678135,-100 C538.8053473154534,0 602.8941690573632,40 586.7010467779581,140 C582.385433399671,240 563.0905625347997,280 547.3990782308235,380 C531.7415330308485,480 524.8607769474428,520 545.2101643449776,620 C520.7736841149499,720 536.9584464045895,760 510.6396248707149,860 C530.2111822859587,960 480.8451245979309,1000 472.4558802551344,1100 C458.180859553244,1200 493.59012207719775,1240 481.3925556334961,1340 " fill="none" stroke="#ffffff" stroke-width="1.63" opacity="0.026" />
<path d="M551.1253783765703,-100 C545.0721777096927,0 506.4683695042779,40 501.44108085772467,140 C496.92971085079245,240 498.28664743741183,280 469.42545850207097,380 C491.1897378733634,480 517.4849093594596,520 519.5706290295609,620 C508.61388685733857,720 514.8945417903719,760 495.2665667462299,860 C509.7901783932905,960 517.0127306142076,1000 492.9119158028243,1100 C506.2573690727511,1200 506.30999015909805,1240 526.6535131597706,1340 " fill="none" stroke="#ffffff" stroke-width="1.21" opacity="0.035" />
<path d="M587.9629210784758,-100 C576.416881339382,0 555.1081613901719,40 566.3434106012938,140 C556.1732587785864,240 594.4433396004173,280 590.3606779903042,380 C566.3872483392628,480 564.4145299905274,520 539.0256556646052,620 C521.3817725952191,720 531.7164276613286,760 540.8678892430137,860 C513.0409793909097,960 502.48170791186243,1000 520.3780327925712,1100 C535.3557301833862,1200 497.4231472962342,1240 499.1774007945721,1340 " fill="none" stroke="#ffffff" stroke-width="1.20" opacity="0.051" />
<path d="M618.8620514422253,-100 C595.7036953029232,0 645.3952627289303,40 645.7803789365029,140 C617.2036511450198,240 660.9723824437865,280 657.4319089615014,380 C643.1057503258878,480 583.1485918122866,520 606.8659835624501,620 C606.247031861476,720 572.6148393184243,760 561.9486881370409,860 C551.7864515356378,960 601.3420515187556,1000 577.7169036789302,1100 C557.0950073976228,1200 555.9418653530113,1240 533.9559923109729,1340 " fill="none" stroke="#ffffff" stroke-width="1.32" opacity="0.051" />
<path d="M639.9717650470258,-100 C635.1371664729008,0 621.970332266469,40 639.7532841308561,140 C636.3967872019401,240 681.3301857801114,280 693.2190464241258,380 C706.2549793563462,480 667.7929665813012,520 693.0461728725893,620 C680.3579426039452,720 709.1915819774857,760 696.8037570338026,860 C705.8301117276719,960 701.008351049807,1000 730.65378136841,1100 C737.1880438907516,1200 727.7836154956053,1240 734.0172589659023,1340 " fill="none" stroke="#ffffff" stroke-width="1.87" opacity="0.054" />
<path d="M666.0038267471405,-100 C662.1264958126467,0 698.3947603520044,40 715.2258526364226,140 C740.138570489011,240 713.8075583896918,280 740.5325574252139,380 C759.4999123572599,480 756.3017054001406,520 763.5566015369246,620 C775.7544922585994,720 746.0453121052557,760 755.7833862811058,860 C732.9226678160695,960 782.5505071564286,1000 777.920426921664,1100 C806.0104925616487,1200 803.6537849671904,1240 803.5071592754769,1340 " fill="none" stroke="#ffffff" stroke-width="2.16" opacity="0.035" />
<path d="M681.4392979915181,-100 C687.3780858690521,0 640.8680882737898,40 638.0666304291358,140 C642.884429753793,240 586.7158526820401,280 602.9214977182412,380 C600.6366185775877,480 634.2053987219871,520 656.6996363036588,620 C653.4667725701798,720 655.0717403396643,760 680.0736488413731,860 C682.868760523346,960 681.2347626176027,1000 706.6477837423535,1100 C720.2445207200915,1200 676.6543245164461,1240 671.7434279238262,1340 " fill="none" stroke="#ffffff" stroke-width="0.92" opacity="0.029" />
<path d="M712.0156544179009,-100 C682.2196903607331,0 752.2027486218085,40 749.0122197684306,140 C749.9756904192881,240 815.3586820334104,280 807.2771873285313,380 C781.2106005770752,480 828.5807217179345,520 832.3211456259023,620 C823.9498242184757,720 819.2918184797288,760 815.6020318470541,860 C844.6419708474008,960 831.4976058474144,1000 850.3038098013424,1100 C847.2331265123088,1200 762.7867996907779,1240 790.7793523363504,1340 " fill="none" stroke="#ffffff" stroke-width="0.98" opacity="0.037" />
<path d="M745.0084777240155,-100 C748.978348306408,0 724.5653441137301,40 705.5559250419357,140 C708.5363361901948,240 744.390253558074,280 759.8029757548034,380 C783.2666603092928,480 723.6090515099064,520 703.355289189729,620 C676.3119742266183,720 677.2257875537554,760 687.2062514101458,860 C685.5435165809611,960 743.8809006184255,1000 747.174331675555,1100 C724.0083600356647,1200 699.2654141986374,1240 690.1406840371187,1340 " fill="none" stroke="#ffffff" stroke-width="1.18" opacity="0.027" />
<path d="M762.1449323643559,-100 C787.6231954739153,0 787.9017405068993,40 778.21249357919,140 C759.7718859052659,240 782.8900767803048,280 803.8362149457416,380 C806.9835756711421,480 804.8636145197974,520 777.5845457211216,620 C764.5462487115863,720 755.0037500166194,760 751.7402701700071,860 C777.1317528505111,960 712.0052011722223,1000 708.9652001575836,1100 C686.8439646854973,1200 715.0335534091498,1240 733.29123125167,1340 " fill="none" stroke="#ffffff" stroke-width="1.17" opacity="0.051" />
<path d="M806.0612413396617,-100 C802.9744853417095,0 827.4846562071899,40 835.7960740216039,140 C814.6786862673554,240 796.9260228272681,280 810.8308792343457,380 C809.6113072457938,480 803.115846177616,520 782.7927562858602,620 C792.2451348368053,720 742.2627265431375,760 745.6810773798409,860 C766.3158643148464,960 828.1065624378826,1000 802.5986702809175,1100 C778.6332418905987,1200 837.8273332243373,1240 828.6188087327134,1340 " fill="none" stroke="#ffffff" stroke-width="1.65" opacity="0.059" />
<path d="M824.3716968628361,-100 C828.8603785031679,0 838.3164346432678,40 840.6079761226692,140 C845.17298463449,240 878.5234886168347,280 851.6769226841114,380 C853.628433699414,480 830.7763057822204,520 848.5113738383978,620 C823.5857171996399,720 882.4356905411585,760 877.9393410637693,860 C881.3654493389676,960 905.1282055359578,1000 905.2145348061791,1100 C893.4262914175451,1200 844.0380534442592,1240 866.1496248556421,1340 " fill="none" stroke="#ffffff" stroke-width="0.91" opacity="0.045" />
<path d="M860.4039709086624,-100 C853.3281799296097,0 844.2208808400643,40 850.5419074230857,140 C850.3958456258853,240 783.5511787031533,280 797.4587885914639,380 C823.586642457628,480 723.4306223135509,520 745.0895826894326,620 C752.6456030969537,720 771.848010161335,760 773.141232723673,860 C794.8274176852203,960 809.8294400506295,1000 810.540883548433,1100 C839.987386606444,1200 759.4291994302563,1240 753.1658023220073,1340 " fill="none" stroke="#ffffff" stroke-width="1.52" opacity="0.043" />
<path d="M884.3229296112378,-100 C902.1635440891978,0 869.702102136521,40 846.9872957322269,140 C835.0900530557075,240 830.7580748784621,280 820.5399054539337,380 C811.3907726860378,480 807.330416584824,520 815.0584797954018,620 C817.6500751003504,720 843.2084127131795,760 828.6346431669208,860 C801.0807339279896,960 880.7044029774277,1000 882.428194337308,1100 C907.9994157634312,1200 847.383493167063,1240 877.3740403876538,1340 " fill="none" stroke="#ffffff" stroke-width="1.22" opacity="0.043" />
<path d="M926.2407246220814,-100 C949.4829778325407,0 922.482894674091,40 927.9611454273137,140 C935.301154891268,240 878.2798509388117,280 900.0042707485411,380 C920.4850121040138,480 943.1293661490216,520 942.107662362248,620 C960.5346454250661,720 967.327901245486,760 971.978786493883,860 C1000.4470824673768,960 996.5077192023816,1000 1011.4356899019217,1100 C1017.0232350937118,1200 1028.8010015065859,1240 1030.031310812207,1340 " fill="none" stroke="#ffffff" stroke-width="1.92" opacity="0.039" />
<path d="M942.7087445725738,-100 C948.0734343417342,0 956.3608648756112,40 931.2448949609494,140 C950.5667780559774,240 879.9527289476996,280 895.6657183688992,380 C900.0775404401741,480 897.7618303366995,520 926.0150232441362,620 C936.4920894172974,720 930.0187076347374,760 948.0532574166075,860 C973.0692052406524,960 994.4227016528966,1000 990.0089040422398,1100 C968.0767103055146,1200 1000.6872945658649,1240 1030.6138452716025,1340 " fill="none" stroke="#ffffff" stroke-width="2.03" opacity="0.012" />
<path d="M987.5118603116441,-100 C996.6387949806258,0 1016.2004370323053,40 1007.8287643055166,140 C1004.8836702258851,240 1064.415271348309,280 1046.204563919965,380 C1023.3045238356037,480 1019.1765235701641,520 1048.2301428301607,620 C1050.6321112867092,720 1022.5567007713714,760 992.7111925208068,860 C1021.7878625186632,960 951.0125077931567,1000 944.2581585329297,1100 C916.7911176813967,1200 1000.7111654701583,1240 980.4321985575185,1340 " fill="none" stroke="#ffffff" stroke-width="1.20" opacity="0.030" />
<path d="M1017.4088611961287,-100 C1007.3025420335891,0 946.1911161943376,40 957.5886512166762,140 C961.3202228838863,240 945.2421222918971,280 931.7820142929604,380 C920.2658222017288,480 919.722856153452,520 910.3401263461269,620 C900.2653045933549,720 884.0591296781661,760 872.3007059527342,860 C898.1585492959156,960 890.0589295797972,1000 914.9284493150149,1100 C901.9447330640235,1200 959.7323028484047,1240 942.6463865778912,1340 " fill="none" stroke="#ffffff" stroke-width="1.81" opacity="0.049" />
<path d="M1033.1758386048366,-100 C1024.4434486873151,0 1005.673197567963,40 1000.6176916276955,140 C983.3431733790943,240 1067.3454489913122,280 1052.760237212213,380 C1032.7813940669523,480 1120.6194938724268,520 1091.3514364017951,620 C1067.3313643759482,720 1091.2363028493144,760 1077.4655002005236,860 C1068.2806088561952,960 1161.7660133042239,1000 1137.3998448993877,1100 C1139.5339503239059,1200 1121.2493976813564,1240 1125.3829169302662,1340 " fill="none" stroke="#ffffff" stroke-width="1.96" opacity="0.049" />
<path d="M1055.1322414392805,-100 C1045.0313645159456,0 1062.058800274664,40 1041.6751856376552,140 C1047.6968580397677,240 1058.8829997787052,280 1055.2691376483265,380 C1084.2859706375418,480 1053.7943270913634,520 1024.6276413448215,620 C1051.0637443014803,720 950.3779819268382,760 976.3456063097976,860 C965.2955502754243,960 958.6985133829041,1000 969.1559209801773,1100 C954.0677371521683,1200 973.7178920567846,1240 960.317512015699,1340 " fill="none" stroke="#ffffff" stroke-width="1.21" opacity="0.038" />
<path d="M1077.6023078418425,-100 C1066.3299826331395,0 1105.9431462396453,40 1110.412114853599,140 C1096.4482396555034,240 1098.0706359817977,280 1121.5109914104514,380 C1118.4327222705817,480 1173.308546066942,520 1143.4660801555553,620 C1123.5690293726343,720 1149.5094323055876,760 1140.2413061096258,860 C1131.529948155529,960 1097.366216223782,1000 1094.9346270126382,1100 C1120.7262501713726,1200 1024.467551359765,1240 1050.646877841092,1340 " fill="none" stroke="#ffffff" stroke-width="1.26" opacity="0.040" />
<path d="M1101.638189291205,-100 C1101.6112599079117,0 1166.868481826025,40 1137.815836004144,140 C1128.6919277810068,240 1137.4569549618752,280 1144.5404993610484,380 C1166.8191609688135,480 1082.2386401882259,520 1096.0637717704806,620 C1092.0099819336504,720 1060.2637214938557,760 1059.2672496793848,860 C1056.8611678960617,960 1082.940385658749,1000 1068.3656527762732,1100 C1092.0823990959382,1200 1000.43140631658,1240 1029.005914970915,1340 " fill="none" stroke="#ffffff" stroke-width="2.03" opacity="0.043" />
<path d="M1136.9024709059158,-100 C1141.961135138688,0 1163.4783187885535,40 1165.1034276375608,140 C1141.8671321620327,240 1088.735057690011,280 1110.5615713894244,380 C1121.9185504906443,480 1106.8790203359513,520 1088.7761467122566,620 C1094.0730197151934,720 1156.8417491444434,760 1133.2894958588286,860 C1117.1197096452302,960 1173.5462479631424,1000 1174.504328803559,1100 C1190.711648167691,1200 1182.0708412916356,1240 1207.3089684259705,1340 " fill="none" stroke="#ffffff" stroke-width="0.81" opacity="0.017" />
<path d="M1160.4800158929065,-100 C1131.5442089199485,0 1172.9150227244688,40 1185.637620053715,140 C1202.2473791247635,240 1134.8788344295474,280 1147.3005761039433,380 C1124.373772151496,480 1112.9472500537477,520 1109.1724476497247,620 C1087.431580239955,720 1150.6635044739596,760 1153.5180217682334,860 C1164.8452591387982,960 1122.7504288178025,1000 1132.2734530697921,1100 C1114.8878572507144,1200 1154.859961741422,1240 1179.7484097109934,1340 " fill="none" stroke="#ffffff" stroke-width="1.33" opacity="0.043" />
<path d="M1176.6702192547248,-100 C1177.7811222871533,0 1124.0411998796467,40 1123.6179469721824,140 C1124.041432983813,240 1111.6509778592012,280 1139.9074766068693,380 C1122.6675186077218,480 1113.5973537642194,520 1093.6918652741097,620 C1108.9284730845216,720 1076.8000853046606,760 1063.0068056273801,860 C1066.218210602793,960 1081.8718292323474,1000 1094.105720603467,1100 C1116.9318998762542,1200 1122.3794805398236,1240 1094.2236272844887,1340 " fill="none" stroke="#ffffff" stroke-width="1.35" opacity="0.029" />
<path d="M1213.3233797708892,-100 C1191.2052070000216,0 1243.400283305836,40 1247.8909340645037,140 C1226.776620129499,240 1271.8665626365073,280 1276.5543490967377,380 C1300.3857793078141,480 1340.177420932444,520 1322.0885261770861,620 C1346.0466576376296,720 1323.4513857875609,760 1340.296599164939,860 C1356.806730280785,960 1329.9231383961176,1000 1325.1283639599549,1100 C1350.517237838105,1200 1361.7081586952966,1240 1347.4916355442376,1340 " fill="none" stroke="#ffffff" stroke-width="2.27" opacity="0.033" />
<path d="M1257.8948861359177,-100 C1255.4655073751244,0 1267.7079010453222,40 1281.6552912671991,140 C1298.58281624943,240 1243.389320387282,280 1226.3785001750946,380 C1221.3583817646427,480 1218.2153867270492,520 1189.5243359735248,620 C1164.6046525879842,720 1177.7488765185583,760 1167.7314915226711,860 C1153.5835359905286,960 1204.1771440417137,1000 1180.0386129775338,1100 C1151.6918656597734,1200 1175.425793898319,1240 1193.0068038276995,1340 " fill="none" stroke="#ffffff" stroke-width="1.62" opacity="0.023" />
<path d="M1275.132591779989,-100 C1259.8373429771182,0 1232.8597591786586,40 1224.5651920364005,140 C1237.530400798402,240 1246.266831290925,280 1226.8518946495196,380 C1203.371063225577,480 1158.0522330794877,520 1179.4713160995043,620 C1193.6696150018033,720 1195.7936804543958,760 1183.2219843773612,860 C1159.7464041802884,960 1229.0527441007139,1000 1205.1903727810625,1100 C1205.1425689786859,1200 1164.7733076743148,1240 1153.3330863509711,1340 " fill="none" stroke="#ffffff" stroke-width="1.22" opacity="0.039" />
<path d="M1291.0383496875381,-100 C1303.2622504891476,0 1269.7268658791124,40 1291.4828633438565,140 C1276.1718573786557,240 1272.9509039303102,280 1251.835246993342,380 C1223.5967624400967,480 1223.5443680788942,520 1240.68009775693,620 C1227.7577981141235,720 1313.8249978562567,760 1292.4150583887415,860 C1268.9488679151168,960 1258.5798582224284,1000 1235.8332309572406,1100 C1252.1699989851488,1200 1215.7806512164937,1240 1245.1556655311551,1340 " fill="none" stroke="#ffffff" stroke-width="1.19" opacity="0.014" />
<path d="M1310.9885827508201,-100 C1284.9202889550472,0 1269.6442801885705,40 1298.1649350147406,140 C1326.282096160967,240 1331.3019962339306,280 1357.1219336374336,380 C1383.409901114457,480 1413.0725995598714,520 1400.7515355626,620 C1375.6959110882178,720 1368.4993648092675,760 1391.6825957346696,860 C1392.105185648486,960 1443.1051070196304,1000 1424.9378076870703,1100 C1436.9172184467918,1200 1431.4916732556942,1240 1423.7130208155643,1340 " fill="none" stroke="#ffffff" stroke-width="1.14" opacity="0.041" />
<path d="M1330.3674624601706,-100 C1336.974568385062,0 1403.401042349189,40 1377.8578968041602,140 C1366.5978697535668,240 1404.1134981373289,280 1407.3591461926328,380 C1431.9407737755944,480 1393.608241371258,520 1375.2603001111765,620 C1372.508409855428,720 1335.309602099504,760 1360.8243833976394,860 C1389.4229480083352,960 1398.967949136125,1000 1394.8218574067585,1100 C1412.8569942155614,1200 1419.9906817668939,1240 1423.1925025574644,1340 " fill="none" stroke="#ffffff" stroke-width="1.61" opacity="0.014" />
<path d="M1373.414414520929,-100 C1371.3189497390267,0 1354.0325476835196,40 1351.9761897426006,140 C1359.1767955082967,240 1391.6692533794894,280 1374.731640605684,380 C1357.3260427055677,480 1454.3010621737158,520 1429.3816655123803,620 C1455.9984312869033,720 1411.046442853908,760 1433.8969796691142,860 C1446.7348685700867,960 1433.3435974007627,1000 1417.596897880909,1100 C1444.067295470369,1200 1462.0360842449734,1240 1464.0667282371621,1340 " fill="none" stroke="#ffffff" stroke-width="1.17" opacity="0.033" />
<path d="M1407.8970077879162,-100 C1391.8462695453281,0 1440.4413538630909,40 1434.4577596542038,140 C1417.0311030528246,240 1408.1141548965873,280 1433.0624083090104,380 C1447.190273902171,480 1417.7650429209314,520 1423.9211009293472,620 C1399.7759259634875,720 1414.4515485988534,760 1440.3868098516446,860 C1425.698061117158,960 1389.1591046376993,1000 1412.5913610895807,1100 C1433.736552386711,1200 1462.0068853777707,1240 1445.17019558059,1340 " fill="none" stroke="#ffffff" stroke-width="1.18" opacity="0.046" />
<path d="M1449.4614488943948,-100 C1448.5858483711327,0 1454.6653859613004,40 1473.127502706949,140 C1466.0696040521473,240 1437.4086775765134,280 1465.4637826173337,380 C1484.5336618063516,480 1474.2340598933831,520 1466.9586945238661,620 C1475.405933153344,720 1467.05246446679,760 1491.3926026772633,860 C1463.5205001448428,960 1502.7531816708047,1000 1514.7669749850202,1100 C1505.6758932636055,1200 1524.8139406709686,1240 1538.4560871525334,1340 " fill="none" stroke="#ffffff" stroke-width="1.21" opacity="0.039" />
<path d="M1465.1402331115694,-100 C1483.117416493633,0 1465.6423087987914,40 1477.494961056471,140 C1473.992238137116,240 1551.3380015009386,280 1527.694947759551,380 C1504.8704660132134,480 1551.741176868708,520 1566.8658606265972,620 C1541.3584240924554,720 1575.5021845761607,760 1601.524691841241,860 C1616.7370286177943,960 1529.9293561888803,1000 1544.039931923254,1100 C1530.1351496257068,1200 1578.3447367996503,1240 1551.1079753613285,1340 " fill="none" stroke="#ffffff" stroke-width="0.85" opacity="0.029" />
<path d="M1489.5130342235288,-100 C1482.2632654242052,0 1540.8309831593906,40 1544.5565937098559,140 C1562.8026052180671,240 1620.0919313134277,280 1597.2965889175775,380 C1577.1288275234685,480 1576.5307551848732,520 1582.1092412564583,620 C1601.6325616831994,720 1607.0586472954517,760 1606.1644782758494,860 C1593.335343365909,960 1547.4345022325724,1000 1573.6443521350086,1100 C1566.2973280855467,1200 1624.5080439604212,1240 1621.466618920133,1340 " fill="none" stroke="#ffffff" stroke-width="1.57" opacity="0.030" />
<path d="M1532.6444146837953,-100 C1542.8137436167935,0 1502.9112744516299,40 1517.892867011666,140 C1523.3943621097376,240 1448.9545069929313,280 1467.2926434412586,380 C1457.1677285417989,480 1429.4669164657837,520 1426.645840953209,620 C1406.8947224344347,720 1439.7487894473204,760 1469.402355723164,860 C1470.4380202749721,960 1504.0680099713018,1000 1515.912600888186,1100 C1544.2447791264872,1200 1498.383098742762,1240 1474.8666187274787,1340 " fill="none" stroke="#ffffff" stroke-width="1.48" opacity="0.037" />
<path d="M1549.8855931967325,-100 C1565.6418144540671,0 1599.6056778349323,40 1584.891706411683,140 C1582.7588146280607,240 1644.5827499308969,280 1625.0405939163634,380 C1629.7021712084195,480 1657.344147214985,520 1684.4072686634636,620 C1684.6126783358636,720 1735.8694937981732,760 1725.1533178851676,860 C1702.386934371385,960 1687.2460042989278,1000 1703.5019757796665,1100 C1675.680938243885,1200 1662.7981497450394,1240 1671.4876600436883,1340 " fill="none" stroke="#ffffff" stroke-width="1.52" opacity="0.019" />
<path d="M1593.9675363491617,-100 C1610.487688471318,0 1616.4046085357757,40 1604.238023494026,140 C1593.1648858439432,240 1626.9447835028236,280 1636.6889858971108,380 C1650.8356992407953,480 1583.8116837766984,520 1581.755157281792,620 C1605.854079454809,720 1643.1004559117914,760 1632.2534979604234,860 C1627.8936806243025,960 1668.862151624935,1000 1643.7334500484048,1100 C1622.0750639349958,1200 1725.004333215433,1240 1695.7405302509392,1340 " fill="none" stroke="#ffffff" stroke-width="1.29" opacity="0.050" />
<path d="M1613.178317475713,-100 C1609.4992779140275,0 1617.3280785763989,40 1635.035028884669,140 C1653.6091703693905,240 1672.207317705188,280 1669.6597802748852,380 C1693.5998820457469,480 1721.9935669053832,520 1699.1485008914444,620 C1683.2552765112996,720 1772.4856602141583,760 1753.2334497277336,860 C1728.0387569403733,960 1765.6669383408596,1000 1739.5323906258038,1100 C1728.3706948340582,1200 1715.2959512400153,1240 1730.789928285704,1340 " fill="none" stroke="#ffffff" stroke-width="1.87" opacity="0.043" />
<path d="M1655.5408654513205,-100 C1637.0813551558613,0 1678.9068947417459,40 1685.428768968785,140 C1686.4613064389823,240 1715.5046410226305,280 1724.698316110274,380 C1720.498591919401,480 1700.7051609671346,520 1690.437922707823,620 C1710.2883340981464,720 1709.9328494455367,760 1731.088982941784,860 C1716.2634304181754,960 1755.7393467442603,1000 1777.6841044014961,1100 C1750.3924306488036,1200 1776.4525584908995,1240 1761.7333756959983,1340 " fill="none" stroke="#ffffff" stroke-width="1.78" opacity="0.048" />
<path d="M1675.421617875664,-100 C1675.623153687138,0 1604.464543057729,40 1626.1205219090843,140 C1635.5372989218831,240 1578.7872919421206,280 1604.6525349897854,380 C1584.5981372021054,480 1634.0197452583616,520 1636.2487351726159,620 C1628.083264454293,720 1588.6230246466646,760 1617.689279551257,860 C1638.5152608525498,960 1670.033304813985,1000 1664.4908047391425,1100 C1686.6832752031091,1200 1589.6533999489307,1240 1608.3556644870546,1340 " fill="none" stroke="#ffffff" stroke-width="1.38" opacity="0.055" />
<path d="M1717.5243185393067,-100 C1747.1684332469224,0 1747.274796309378,40 1743.7857660648679,140 C1717.7856469864678,240 1731.7201195388434,280 1742.612532855779,380 C1725.4860249223766,480 1748.0526672959913,520 1774.0299481969655,620 C1754.3106284330056,720 1749.6057743687215,760 1772.5021098330872,860 C1758.5101384257864,960 1831.3113830916311,1000 1805.6273761478951,1100 C1791.3764829014333,1200 1769.7066700541968,1240 1757.6827925773866,1340 " fill="none" stroke="#ffffff" stroke-width="2.24" opacity="0.017" />
<path d="M1732.8999630992462,-100 C1737.9798711216915,0 1659.0374676912418,40 1676.9598833172165,140 C1653.188492789097,240 1703.3163556170775,280 1699.1220448944284,380 C1704.9572610545247,480 1706.4647596256941,520 1676.828708821071,620 C1691.8208576799132,720 1655.8710451156173,760 1626.7658490722404,860 C1624.4827524344187,960 1633.2933092296898,1000 1625.844746188024,1100 C1628.2180861342115,1200 1671.339768251965,1240 1676.7235621216385,1340 " fill="none" stroke="#ffffff" stroke-width="2.17" opacity="0.051" />
<path d="M1769.6608875628476,-100 C1781.44072087267,0 1731.5065190740706,40 1722.3803418051189,140 C1749.203843232036,240 1671.6252633758834,280 1675.0829698628313,380 C1696.7627293793573,480 1696.5759363519137,520 1703.2909716799936,620 C1690.8292844196847,720 1745.5578080422904,760 1762.4679591960314,860 C1789.6446562018439,960 1725.425878039506,1000 1750.2428524407408,1100 C1742.4098743116551,1200 1677.8415974074394,1240 1690.2468850257183,1340 " fill="none" stroke="#ffffff" stroke-width="1.39" opacity="0.010" />
<path d="M1799.0913048245518,-100 C1819.912308906508,0 1879.4171103517288,40 1855.6575609478036,140 C1841.0461757925548,240 1901.1778911959025,280 1908.107519109846,380 C1906.3061202054923,480 1864.8473161196464,520 1874.3210851094625,620 C1885.14307020721,720 1913.650380168477,760 1913.8286503589839,860 C1886.2881787377514,960 1906.951105404657,1000 1917.9694424997058,1100 C1910.5203302760253,1200 1896.0038137694578,1240 1925.820157993732,1340 " fill="none" stroke="#ffffff" stroke-width="1.53" opacity="0.030" />
<path d="M1815.255841555467,-100 C1791.3972427551305,0 1759.805578807,40 1761.360212677093,140 C1737.681604631271,240 1790.2333787700868,280 1817.8384308386187,380 C1833.778546323617,480 1783.4431444058243,520 1805.6211541348,620 C1826.7943526074362,720 1769.4169409954754,760 1779.6379113212824,860 C1807.0754032874693,960 1807.9535835431127,1000 1814.1190211338019,1100 C1833.5719783676755,1200 1754.67048503473,1240 1782.3114507796956,1340 " fill="none" stroke="#ffffff" stroke-width="2.06" opacity="0.043" />
<path d="M1839.187938007317,-100 C1841.8063774731033,0 1869.5084361636575,40 1851.3667263081766,140 C1877.850818921705,240 1907.906831976562,280 1878.27323089321,380 C1865.868498451324,480 1803.045433285416,520 1818.9484331964716,620 C1843.9740142192768,720 1753.685070715388,760 1762.3150766904575,860 C1761.7851222021081,960 1827.4535746158147,1000 1803.8438177437765,1100 C1828.3395425463941,1200 1779.4240333908087,1240 1804.1994157257889,1340 " fill="none" stroke="#ffffff" stroke-width="0.91" opacity="0.051" />
<path d="M1882.6577885099682,-100 C1865.5377540620036,0 1906.291983009338,40 1878.663193788714,140 C1880.5889550846211,240 1876.2078135843467,280 1884.4513909694736,380 C1886.921447460814,480 1828.844817529553,520 1852.2025401977012,620 C1836.9201226680898,720 1800.7032179323862,760 1796.186194500936,860 C1798.2524103709288,960 1856.910452232838,1000 1849.1629891465548,1100 C1842.0882008135509,1200 1814.6454408280576,1240 1807.2161020352762,1340 " fill="none" stroke="#ffffff" stroke-width="0.96" opacity="0.013" />
<path d="M1916.6610522107771,-100 C1913.444184649529,0 1926.3044502944372,40 1917.2810533232011,140 C1890.4074605376575,240 1957.5968845110672,280 1949.1494313834482,380 C1924.6253432725255,480 1928.1819100792154,520 1924.772144208368,620 C1939.1901073414067,720 1904.7185291981389,760 1914.4894124679508,860 C1895.4349670036465,960 1836.6328512437117,1000 1858.5210785747975,1100 C1864.8630304860183,1200 1873.6926444525623,1240 1872.5810690229282,1340 " fill="none" stroke="#ffffff" stroke-width="1.80" opacity="0.018" />
<path d="M1949.5731662500684,-100 C1968.1444681971986,0 1961.2649649886637,40 1936.6424918023902,140 C1949.07927864556,240 1918.159500294773,280 1944.0139555152884,380 C1943.47148024541,480 1898.5233645419203,520 1896.1164508043275,620 C1869.0726886586745,720 1900.1923782587457,760 1898.4228422708234,860 C1881.3548310536514,960 1910.9626650293221,1000 1915.220582624096,1100 C1907.944913833969,1200 1974.594336448559,1240 1950.6695663123353,1340 " fill="none" stroke="#ffffff" stroke-width="1.61" opacity="0.022" />
<path d="M1981.6083876324617,-100 C1986.9988730727257,0 1975.2630340228627,40 1979.425389584066,140 C1981.8607752168784,240 1953.9539949847529,280 1973.4881310345274,380 C1947.3775841997683,480 2033.0441722231362,520 2008.6679906099218,620 C2004.0616661028703,720 2018.173175914679,760 2029.4507378493322,860 C2025.3106209263997,960 2032.724477435936,1000 2038.2405970477432,1100 C2060.441693437588,1200 2071.285518005,1240 2042.86190102176,1340 " fill="none" stroke="#ffffff" stroke-width="1.85" opacity="0.016" />

</svg>