<svg xmlns="http://www.w3.org/2000/svg" width="100%" height="100%" viewBox="0 0 800 800">
    <g fill="none" stroke="#ffffff" stroke-width="1.5" stroke-opacity="0.04">
        <path d="M769 229L1037 260.9M927 880L731 737 520 660 309 538 40 599 295 764 126.5 879.5 40 599-197 493 102 382-31 229 126.5 79.5-69-63" />
        <path d="M-31 229L237 261 390 382 603 493 308.5 537.5 101.5 381.5M370 905L295 764" />
        <path d="M520 660L578 842 731 737 840 599 603 493 520 660 295 764 309 538 390 382 539 269 769 229 577.5 41.5 370 105 295 -64" />
        <path d="M520 660L731 737 840 599 1037 260.9 840 599 1037 260.9 1037 260.9M539 269L769 229 1037 260.9 1037 260.9" />
        <!-- Many more contour lines... let's use a simpler wavy pattern that repeats nicely -->
    </g>
</svg>
